# xmcd
#
# Track frame offsets:
#	150
#	14580
#	25667
#	38900
#	49065
#	62175
#	78900
#	91992
#	105460
#	119615
#	130910
#	146017
#	158284
#	169562
#
# Disc length: 2419 seconds
#
# Revision: 1
# Processed by: cddbd v1.5.2PL0 Copyright (c) Steve Scherf et al.
# Submitted via: EasyCDDAExtractor 11.5.3.1
#
DISCID=ad09710e
DTITLE=Maarten - Welcome To My World
DYEAR=2005
DGENRE=Country
TTITLE0=Welcome to my world
TTITLE1=Just walking in the rain
TTITLE2=Roses are red
TTITLE3=It's only a paper moon
TTITLE4=I love you because
TTITLE5=Memories are made of this
TTITLE6=From a jack to a king
TTITLE7=He'll have to go
TTITLE8=Making believe
TTITLE9=There's always me
TTITLE10=Have you ever been lonely
TTITLE11=Home
TTITLE12=Adios amigo
TTITLE13=Mona Lisa
EXTD=
EXTT0=
EXTT1=
EXTT2=
EXTT3=
EXTT4=
EXTT5=
EXTT6=
EXTT7=
EXTT8=
EXTT9=
EXTT10=
EXTT11=
EXTT12=
EXTT13=
PLAYORDER=
